<svg id="Group_3866" data-name="Group 3866" xmlns="http://www.w3.org/2000/svg" viewBox="0 0 204.922 18.956">
  <defs>
    <style>
      .cls-1 {
        fill: #fff;
      }
    </style>
  </defs>
  <path id="Path_991" data-name="Path 991" class="cls-1" d="M9.253,8.445h0l.719,1.707L14.1,2.246l4.312,8L21.2,1.617h3.414l-5.75,17.159L14.1,9.164,9.074,18.686,6.289,8.445C4.941,5.3,3.953,3.234,3.234,2.515A6.538,6.538,0,0,0,1.258.9,2.114,2.114,0,0,0,.539.719H.449L0,.809A4.906,4.906,0,0,1,2.605,0h.27C5.39.359,7.457,3.144,9.253,8.445Z"/>
  <path id="Path_992" data-name="Path 992" class="cls-1" d="M35.177,2.9h.449a7.8,7.8,0,0,1,5.75,2.605,6.381,6.381,0,0,1,1.617,4.222,6.386,6.386,0,0,1-2.426,4.851,8.15,8.15,0,0,1-5.211,1.8,7.864,7.864,0,0,1-4.941-1.707,8.615,8.615,0,0,1-1.617-1.8,5.49,5.49,0,0,1-.9-3.055v-.09a5.988,5.988,0,0,1,2.246-4.672,8.487,8.487,0,0,1,3.594-1.8A2.284,2.284,0,0,1,35.177,2.9ZM31.494,9.458v.27a3.4,3.4,0,0,0,1.617,2.7,5.027,5.027,0,0,0,2.426.719h.18a4.222,4.222,0,0,0,3.414-1.8,3.467,3.467,0,0,0,.539-1.8,3.636,3.636,0,0,0-2.156-3.234,4.828,4.828,0,0,0-1.887-.449,4.169,4.169,0,0,0-3.594,1.887A2.879,2.879,0,0,0,31.494,9.458Z" transform="translate(-2.835 -0.295)"/>
  <path id="Path_993" data-name="Path 993" class="cls-1" d="M47.985,2.9h1.168c4.312,0,7.007,1.258,8.355,3.863a7.711,7.711,0,0,1,.359,1.887,3.86,3.86,0,0,1-2.7,4.043h-.09a41.516,41.516,0,0,1,3.144,2.875,11.81,11.81,0,0,0,4.133,2.066v.09c-1.887.359-3.5.539-4.761.719-.629,0-2.336-1.348-5.3-4.133L49.333,11.7c2.7-.359,4.222-.809,4.492-1.527a1.631,1.631,0,0,0,.539-1.258c0-1.8-1.887-2.875-5.75-3.144V16.286H45.2V3.08l.09-.09C46.458,2.9,47.266,2.9,47.985,2.9Z" transform="translate(-4.593 -0.295)"/>
  <path id="Path_994" data-name="Path 994" class="cls-1" d="M61.08,2.8h3.144a.088.088,0,0,1,.09.09V13.85h5.031v.09A14.388,14.388,0,0,1,67.638,16.1l-6.738.09V2.98A.193.193,0,0,1,61.08,2.8Z" transform="translate(-6.188 -0.285)"/>
  <path id="Path_995" data-name="Path 995" class="cls-1" d="M71.09,2.9h5.48a7.938,7.938,0,0,1,4.312,1.437,7.271,7.271,0,0,1,2.7,3.863,4.374,4.374,0,0,1,.09,1.078v.359h0v.09q0,3.5-2.156,5.121a6.708,6.708,0,0,1-4.492,1.437H71L71.09,2.9ZM74.5,5.775v7.636h1.437c1.8,0,2.965-.27,3.594-.9a4.543,4.543,0,0,0,1.078-2.785c-.09-1.617-.629-2.785-1.617-3.234a6.966,6.966,0,0,0-3.773-.629H74.5Z" transform="translate(-7.215 -0.295)"/>
  <path id="Path_996" data-name="Path 996" class="cls-1" d="M100.214,1.8h.539a9.142,9.142,0,0,1,7.007,3.324,8.635,8.635,0,0,1,1.887,5.48,8.385,8.385,0,0,1-2.875,6.2,9.4,9.4,0,0,1-6.289,2.336,9.3,9.3,0,0,1-6.019-2.246,8.781,8.781,0,0,1-1.887-2.336A7.936,7.936,0,0,1,91.5,10.6v-.18a8.328,8.328,0,0,1,2.7-6.109A10.2,10.2,0,0,1,98.507,1.98,13.841,13.841,0,0,1,100.214,1.8Zm-5.3,8.8c.629,3.414,2.605,5.211,5.929,5.48,3.414-.18,5.3-1.976,5.57-5.57-.27-3.414-2.156-5.3-5.75-5.66C97.07,5.394,95.094,7.28,94.914,10.6Z" transform="translate(-9.298 -0.183)"/>
  <path id="Path_997" data-name="Path 997" class="cls-1" d="M112.5,2.8h8V5.675h-4.582V8.28h3.953c.09,0,.09,0,.09.09l-1.168,2.785h-2.875v5.121h-3.324c-.09,0-.09,0-.09-.09V2.8Z" transform="translate(-11.427 -0.285)"/>
  <path id="Path_998" data-name="Path 998" class="cls-1" d="M133.164,8.445h0l.719,1.707,4.133-7.906,4.312,8,2.785-8.625h3.414l-5.66,17.159L138.1,9.164l-5.031,9.523L130.2,8.445a27.918,27.918,0,0,0-2.965-5.929A6.833,6.833,0,0,0,125.168.9a1.665,1.665,0,0,0-.629-.18h-.18L124,.809A4.906,4.906,0,0,1,126.605,0h.27c2.426.359,4.582,3.144,6.289,8.445Z" transform="translate(-12.6)"/>
  <path id="Path_999" data-name="Path 999" class="cls-1" d="M159.077,2.9h.449a7.8,7.8,0,0,1,5.75,2.605,6.381,6.381,0,0,1,1.617,4.222,6.386,6.386,0,0,1-2.426,4.851,8.15,8.15,0,0,1-5.211,1.8,7.864,7.864,0,0,1-4.941-1.707,8.616,8.616,0,0,1-1.617-1.8,5.491,5.491,0,0,1-.9-3.055v-.09a5.988,5.988,0,0,1,2.246-4.672,8.486,8.486,0,0,1,3.594-1.8A2.56,2.56,0,0,1,159.077,2.9Zm-3.683,6.558v.27a3.4,3.4,0,0,0,1.617,2.7,5.027,5.027,0,0,0,2.426.719h.18a4.222,4.222,0,0,0,3.414-1.8,3.467,3.467,0,0,0,.539-1.8,3.636,3.636,0,0,0-2.156-3.234,4.828,4.828,0,0,0-1.887-.449,4.169,4.169,0,0,0-3.594,1.887A3.706,3.706,0,0,0,155.394,9.458Z" transform="translate(-15.425 -0.295)"/>
  <path id="Path_1000" data-name="Path 1000" class="cls-1" d="M181.6,2.9V16.645l-8.984-6.379v6.019H169.2V3.8h.09l8.984,5.57V3.8Z" transform="translate(-17.193 -0.295)"/>
  <path id="Path_1001" data-name="Path 1001" class="cls-1" d="M184.39,2.9h5.48a7.938,7.938,0,0,1,4.312,1.437,7.271,7.271,0,0,1,2.7,3.863,4.374,4.374,0,0,1,.09,1.078v.359h0v.09q0,3.5-2.156,5.121a6.708,6.708,0,0,1-4.492,1.437H184.3L184.39,2.9C184.3,2.99,184.3,2.9,184.39,2.9Zm3.324,2.875v7.636h1.437c1.8,0,2.965-.27,3.594-.9a4.543,4.543,0,0,0,1.078-2.785c-.09-1.617-.629-2.785-1.617-3.234a6.966,6.966,0,0,0-3.773-.629h-.719Z" transform="translate(-18.727 -0.295)"/>
  <path id="Path_1002" data-name="Path 1002" class="cls-1" d="M199.48,2.9h5.929l1.527,2.785h-3.953V8.021H205.5a.088.088,0,0,1,.09.09v2.7a.088.088,0,0,1-.09.09h-2.605v2.515h4.222v2.875H199.39a.088.088,0,0,1-.09-.09l.18-13.3C199.39,2.99,199.39,2.9,199.48,2.9Z" transform="translate(-20.252 -0.295)"/>
  <path id="Path_1003" data-name="Path 1003" class="cls-1" d="M211.785,2.9h1.168c4.312,0,7.007,1.258,8.355,3.863a7.709,7.709,0,0,1,.359,1.887,3.86,3.86,0,0,1-2.7,4.043h-.09a41.5,41.5,0,0,1,3.144,2.875,11.81,11.81,0,0,0,4.133,2.066v.09c-1.887.359-3.5.539-4.761.719-.629,0-2.336-1.348-5.3-4.133L213.133,11.7c2.7-.359,4.222-.809,4.492-1.527a1.631,1.631,0,0,0,.539-1.258c0-1.8-1.887-2.875-5.75-3.144V16.286H209V3.08l.09-.09C210.258,2.9,211.156,2.9,211.785,2.9Z" transform="translate(-21.237 -0.295)"/>
</svg>
