<svg xmlns="http://www.w3.org/2000/svg" viewBox="0 0 92.5 19.975"><path d="M53.787.925V19.6h-.075L40.437,6.125,40.487,19h-2.45V.375h.125L51.412,14,51.362.925ZM69.037,8.65V19H66.712V17.3a5.364,5.364,0,0,1-1.6,1.338,4.626,4.626,0,0,1-2.375.612,5.539,5.539,0,0,1-2.662-.638A4.636,4.636,0,0,1,58.2,16.75a5.885,5.885,0,0,1-.687-2.925,5.928,5.928,0,0,1,.713-2.963,5.035,5.035,0,0,1,1.925-1.95,5.353,5.353,0,0,1,2.688-.687,4.445,4.445,0,0,1,2.3.575,4.683,4.683,0,0,1,1.575,1.5l.175-1.65Zm-5.675,8.675a3.447,3.447,0,0,0,2.188-.713,3.172,3.172,0,0,0,1.162-1.937v-2.05a3.189,3.189,0,0,0-1.25-1.788,3.615,3.615,0,0,0-2.175-.687,3.393,3.393,0,0,0-1.713.45,3.308,3.308,0,0,0-1.25,1.262,3.648,3.648,0,0,0-.463,1.838,3.592,3.592,0,0,0,.475,1.825,3.634,3.634,0,0,0,1.275,1.313A3.3,3.3,0,0,0,63.362,17.325ZM82.713,8.65V19h-2.1l-.15-1.975a4.158,4.158,0,0,1-1.625,1.712,4.657,4.657,0,0,1-2.45.663,3.266,3.266,0,0,1-2.337-.862,3.1,3.1,0,0,1-.963-2.238V8.65h2.325v6.825a2.189,2.189,0,0,0,.513,1.387,1.846,1.846,0,0,0,1.387.538,2.564,2.564,0,0,0,1.55-.512,3.526,3.526,0,0,0,1.112-1.413,4.744,4.744,0,0,0,.412-2V8.65Zm7.4-4.55V8.675h2.825v1.85H90.112V19h-2.35V10.525h-1.9V8.675h1.9V4.1Zm7.975,4.55V19H95.762V8.65Zm-2.5-3.725A1.186,1.186,0,0,1,96.012,4a1.431,1.431,0,0,1,.975-.375A1.386,1.386,0,0,1,97.95,4a1.243,1.243,0,0,1,0,1.85,1.386,1.386,0,0,1-.963.375,1.431,1.431,0,0,1-.975-.375A1.186,1.186,0,0,1,95.587,4.925Zm14.95,13.1a5.221,5.221,0,0,1-1.663.9,6.1,6.1,0,0,1-1.962.325,6.287,6.287,0,0,1-2.963-.675,4.863,4.863,0,0,1-2-1.913,5.634,5.634,0,0,1-.713-2.863,5.365,5.365,0,0,1,.75-2.837,5.185,5.185,0,0,1,2-1.913,5.594,5.594,0,0,1,2.7-.675,5.9,5.9,0,0,1,3.925,1.3L109.438,11.2a5.069,5.069,0,0,0-1.15-.637,3.7,3.7,0,0,0-1.4-.263,3.191,3.191,0,0,0-1.687.463,3.3,3.3,0,0,0-1.2,1.262,3.638,3.638,0,0,0-.437,1.775,3.582,3.582,0,0,0,5.775,2.775ZM124.162,8.65V19h-2.325V17.3a5.364,5.364,0,0,1-1.6,1.338,4.626,4.626,0,0,1-2.375.612,5.539,5.539,0,0,1-2.662-.638,4.636,4.636,0,0,1-1.875-1.862,5.885,5.885,0,0,1-.687-2.925,5.928,5.928,0,0,1,.713-2.963,5.035,5.035,0,0,1,1.925-1.95,5.353,5.353,0,0,1,2.688-.687,4.445,4.445,0,0,1,2.3.575,4.683,4.683,0,0,1,1.575,1.5l.175-1.65Zm-5.675,8.675a3.447,3.447,0,0,0,2.188-.713,3.172,3.172,0,0,0,1.162-1.937v-2.05a3.189,3.189,0,0,0-1.25-1.788,3.615,3.615,0,0,0-2.175-.687,3.393,3.393,0,0,0-1.713.45,3.308,3.308,0,0,0-1.25,1.262,3.648,3.648,0,0,0-.463,1.838,3.592,3.592,0,0,0,.475,1.825,3.634,3.634,0,0,0,1.275,1.313A3.3,3.3,0,0,0,118.487,17.325Zm12.05-17.7V19h-2.325V-.375Z" transform="translate(-38.037 0.375)"/></svg>