<svg xmlns="http://www.w3.org/2000/svg" viewBox="0 0 305.1 47.7"><defs><style>.a{fill:#fff;}</style></defs><path class="a" d="M45.48-44.16V1.8h-.24L14.34-26.1,14.52,0H5.7V-45.9h.36L36.9-17.58l-.18-26.58ZM78.72-8.64H64.08L60.48,0H51.9L71.82-45.9h.48L92.22,0H82.14Zm-2.88-7.32L71.58-26.7,67.14-15.96Zm29.1-.36a7.217,7.217,0,0,0,1.26,4.02,9.7,9.7,0,0,0,3.36,3.12,8.923,8.923,0,0,0,4.5,1.2,9.6,9.6,0,0,0,4.74-1.2,9.294,9.294,0,0,0,3.39-3.12,7.341,7.341,0,0,0,1.23-4.02V-44.16H132v28.02a15.708,15.708,0,0,1-2.4,8.55,16.522,16.522,0,0,1-6.51,5.94A19.329,19.329,0,0,1,114.06.48a19.15,19.15,0,0,1-9-2.13,16.355,16.355,0,0,1-6.45-5.94,15.856,15.856,0,0,1-2.37-8.55V-44.16h8.7Zm64.32-27.84v8.4H158.52V0h-8.7V-35.76H139.5v-8.4Zm17.1,0V0h-8.7V-44.16Zm44.52,40.5A19.566,19.566,0,0,1,225.54-.9,22.443,22.443,0,0,1,217.56.48a23.237,23.237,0,0,1-12-3,20.3,20.3,0,0,1-7.8-8.07,23.306,23.306,0,0,1-2.7-11.13,25.482,25.482,0,0,1,2.7-11.88,19.926,19.926,0,0,1,7.56-8.13,21.416,21.416,0,0,1,11.22-2.91,24.592,24.592,0,0,1,7.44,1.08,25.917,25.917,0,0,1,6,2.7l-3.42,8.22a15.926,15.926,0,0,0-9.72-3.6,11.575,11.575,0,0,0-6.3,1.86,13.465,13.465,0,0,0-4.68,5.07,14.676,14.676,0,0,0-1.74,7.11,16.372,16.372,0,0,0,1.62,7.47,12.031,12.031,0,0,0,4.62,5.01,13.382,13.382,0,0,0,7.02,1.8,15.321,15.321,0,0,0,5.82-1.05,12.8,12.8,0,0,0,4.08-2.49Zm30.54-4.98H246.78L243.18,0H234.6l19.92-45.9H255L274.92,0H264.84Zm-2.88-7.32L254.28-26.7l-4.44,10.74Zm31.5-28.2V-8.4H310.8V0H281.34V-44.16Z" transform="translate(-5.7 45.9)"/></svg>