<svg xmlns="http://www.w3.org/2000/svg" viewBox="0 0 275.385 60.394"><defs><style>.a{fill:#fff;}</style></defs><path class="a" d="M101.453,8.69A29.651,29.651,0,0,0,79.729,0a29.688,29.688,0,0,0-14.99,3.91A28.055,28.055,0,0,0,53.877,14.99a28.483,28.483,0,0,0-3.693,11.948h-3.91V1.3h-8.69V40.19L3.693,1.3H0v57.57H8.907V20.638L42.363,58.873h3.693V34.759h3.91A28.787,28.787,0,0,0,58.439,51.7a29.16,29.16,0,0,0,21.507,8.69,30.028,30.028,0,0,0,21.507-8.69,29.16,29.16,0,0,0,8.69-21.507A28.348,28.348,0,0,0,101.453,8.69ZM85.812,34.759V26.938H58.873a24.3,24.3,0,0,1,2.607-7.6A22.466,22.466,0,0,1,69.3,11.514,20.577,20.577,0,0,1,79.946,8.69a24.5,24.5,0,0,1,10.862,2.824,19.356,19.356,0,0,1,7.821,7.821A20.8,20.8,0,0,1,101.453,30.2a21.583,21.583,0,0,1-2.824,11.079A22.466,22.466,0,0,1,90.808,49.1a20.8,20.8,0,0,1-10.862,2.824,20.319,20.319,0,0,1-14.99-6.083,21.379,21.379,0,0,1-5.866-10.862H85.812Z"/><path class="a" d="M213.2,13.283A25.934,25.934,0,0,0,199.95,3.072c-3.91-1.3-9.776-1.955-18.249-1.955H168.667V55.863L145.422.9h-3.476L118.484,55.211,103.059.9H99.583L84.376,39.135,69.386.9H65.911L49.4,58.47h9.124l10.21-35.628,13.9,35.628h3.476l14.121-35.628,9.993,35.628H126.3l13.9-31.935V58.47h6.083V26.752l13.9,31.935H187.35c6.952,0,12.6-1.086,16.511-3.041a23.554,23.554,0,0,0,9.776-9.776,31.5,31.5,0,0,0,3.693-15.207A27,27,0,0,0,213.2,13.283Zm-4.128,17.38a20.659,20.659,0,0,1-3.259,11.731,16.345,16.345,0,0,1-8.69,6.517q-4.236,1.3-14.99,1.3h-4.562V9.59h2.172c7.6,0,13.035.434,16.293,1.521a17.788,17.788,0,0,1,9.776,6.952A25.182,25.182,0,0,1,209.075,30.662Z" transform="translate(57.919 1.055)"/></svg>