<svg xmlns="http://www.w3.org/2000/svg" viewBox="0 0 79.604 17.458"><path d="M29.327,2.512A8.571,8.571,0,0,0,23.047,0a8.582,8.582,0,0,0-4.333,1.13,8.11,8.11,0,0,0-3.14,3.2,8.234,8.234,0,0,0-1.068,3.454h-1.13V.377H10.864V11.618L1.068.377H0V17.018H2.575V5.966l9.671,11.053h1.068V10.048h1.13a8.321,8.321,0,0,0,2.449,4.9,8.429,8.429,0,0,0,6.217,2.512,8.68,8.68,0,0,0,6.217-2.512,8.429,8.429,0,0,0,2.512-6.217A8.194,8.194,0,0,0,29.327,2.512Zm-4.522,7.536V7.787H17.018a7.024,7.024,0,0,1,.754-2.2,6.494,6.494,0,0,1,2.261-2.261,5.948,5.948,0,0,1,3.077-.816,7.081,7.081,0,0,1,3.14.816,5.6,5.6,0,0,1,2.261,2.261,6.014,6.014,0,0,1,.816,3.14,6.239,6.239,0,0,1-.816,3.2,6.494,6.494,0,0,1-2.261,2.261,6.014,6.014,0,0,1-3.14.816,5.874,5.874,0,0,1-4.333-1.758,6.18,6.18,0,0,1-1.7-3.14h7.724Z"/><path d="M96.75,4.48a7.5,7.5,0,0,0-3.831-2.952A17.727,17.727,0,0,0,87.644.963H83.876V16.788L77.157.9h-1L69.37,16.6,64.911.9h-1l-4.4,11.053L55.177.9h-1L49.4,17.542h2.638l2.952-10.3,4.019,10.3h1l4.082-10.3,2.889,10.3h4.647L75.65,8.31v9.231h1.758V8.373L81.427,17.6h7.85a10.964,10.964,0,0,0,4.773-.879A6.809,6.809,0,0,0,96.876,13.9a9.106,9.106,0,0,0,1.068-4.4A7.806,7.806,0,0,0,96.75,4.48ZM95.557,9.5a5.972,5.972,0,0,1-.942,3.391A4.725,4.725,0,0,1,92.1,14.778a16.847,16.847,0,0,1-4.333.377H86.451V3.412h.628a16.808,16.808,0,0,1,4.71.44,5.142,5.142,0,0,1,2.826,2.01A7.279,7.279,0,0,1,95.557,9.5Z" transform="translate(-18.377 -0.335)"/></svg>