<svg xmlns="http://www.w3.org/2000/svg" viewBox="0 0 74.8 16.4"><path d="M0,.4H3v10a6.248,6.248,0,0,0,.2,1.8,3.114,3.114,0,0,0,.7.9,2.5,2.5,0,0,0,1.3.3A1.844,1.844,0,0,0,6.5,13a1.765,1.765,0,0,0,.8-.9A9.1,9.1,0,0,0,7.5,10V.4h3V9.7a11.222,11.222,0,0,1-.3,3.2,5.424,5.424,0,0,1-1,1.8A5.155,5.155,0,0,1,7.5,16a5.27,5.27,0,0,1-2.3.4,5.467,5.467,0,0,1-2.9-.8A5.409,5.409,0,0,1,.5,13.7,13.251,13.251,0,0,1,0,9.6Z"/><path d="M12.9.4h2.8l6.6,10.2V.4h3V15.9H22.5L15.8,5.7V15.9h-3V.4Z"/><path d="M27.8.4h7.7V3.3H30.7V6.1h4.8V8.9H30.7v7H27.8V.4Z"/><path d="M44.4,0a7.787,7.787,0,0,1,5.7,2.4,7.849,7.849,0,0,1,2.4,5.8A8.162,8.162,0,0,1,50.2,14a7.476,7.476,0,0,1-5.7,2.4A7.693,7.693,0,0,1,38.7,14a8.1,8.1,0,0,1-2.3-5.7,8.388,8.388,0,0,1,1.1-4.1,8.613,8.613,0,0,1,3-3A6.452,6.452,0,0,1,44.4,0Zm-.1,2.9a4.91,4.91,0,0,0-3.6,1.5,5.2,5.2,0,0,0-1.5,3.8A5.1,5.1,0,0,0,41,12.3a5.163,5.163,0,0,0,3.3,1.2A4.91,4.91,0,0,0,47.9,12a5.135,5.135,0,0,0,1.5-3.7,5.367,5.367,0,0,0-1.5-3.8A4.375,4.375,0,0,0,44.3,2.9Z"/><path d="M54.1.4h3V13.1h4.3v2.8H54.1Z"/><path d="M62.5.4H66a12.307,12.307,0,0,1,5,.8,7,7,0,0,1,2.7,2.7,8.969,8.969,0,0,1,1.1,4.4,8.808,8.808,0,0,1-.6,3.3,7.161,7.161,0,0,1-1.6,2.5,6.206,6.206,0,0,1-2.3,1.4,13.853,13.853,0,0,1-4.2.4H62.5Zm3,2.8V13h1.4a6.539,6.539,0,0,0,2.9-.5,3.359,3.359,0,0,0,1.5-1.6,5.4,5.4,0,0,0,.6-2.7,5.216,5.216,0,0,0-1.4-3.8,5.627,5.627,0,0,0-4-1.2h-1Z"/><path d="M43.7,6.1V9H30.5V6.1Z"/></svg>