<svg xmlns="http://www.w3.org/2000/svg" viewBox="0 0 279.103 61.194"><defs><style>.a{fill:#fff;}</style></defs><g transform="translate(0)"><g transform="translate(0 0)"><path class="a" d="M0,.4H11.194V37.713a23.312,23.312,0,0,0,.746,6.716,11.619,11.619,0,0,0,2.612,3.358A9.335,9.335,0,0,0,19.4,48.907a6.881,6.881,0,0,0,4.851-1.493,6.584,6.584,0,0,0,2.985-3.358,33.955,33.955,0,0,0,.746-7.836V.4H39.179V35.1c0,5.97-.373,9.7-1.119,11.94a20.237,20.237,0,0,1-3.731,6.716,19.233,19.233,0,0,1-6.343,4.851A19.662,19.662,0,0,1,19.4,60.1,20.4,20.4,0,0,1,8.582,57.116a20.182,20.182,0,0,1-6.716-7.09C.746,46.668,0,41.818,0,34.728Z" transform="translate(0 1.093)"/><path class="a" d="M13.173.4H23.621L48.248,38.459V.4H59.441V58.235H48.994l-25-38.059V58.235H12.8V.4Z" transform="translate(34.961 1.093)"/><path class="a" d="M27.8.4H56.531V11.221H38.621V21.669h17.91V32.116H38.621V58.235H27.8V.4Z" transform="translate(75.931 1.093)"/><path class="a" d="M66.251,0A29.056,29.056,0,0,1,87.519,8.955,29.287,29.287,0,0,1,96.474,30.6a30.455,30.455,0,0,1-8.582,21.642q-8.4,8.955-21.269,8.955c-8.582,0-16.045-2.985-21.642-8.955A30.216,30.216,0,0,1,36.4,30.97a31.3,31.3,0,0,1,4.1-15.3A32.137,32.137,0,0,1,51.7,4.478,24.073,24.073,0,0,1,66.251,0Zm-.373,10.821a18.32,18.32,0,0,0-13.433,5.6,19.412,19.412,0,0,0-5.6,14.179c0,6.343,2.239,11.567,6.716,15.3a19.266,19.266,0,0,0,12.313,4.478,18.32,18.32,0,0,0,13.433-5.6,19.161,19.161,0,0,0,5.6-13.806,20.028,20.028,0,0,0-5.6-14.179C75.952,12.686,71.474,10.821,65.877,10.821Z" transform="translate(99.42 0)"/><path class="a" d="M54.1.4H65.294V47.788H81.339V58.235H54.1Z" transform="translate(147.764 1.093)"/><path class="a" d="M62.5.4H75.56c8.582,0,14.552,1.119,18.657,2.985A26.121,26.121,0,0,1,104.291,13.46a33.466,33.466,0,0,1,4.1,16.418,32.866,32.866,0,0,1-2.239,12.313,26.719,26.719,0,0,1-5.97,9.328A23.155,23.155,0,0,1,91.6,56.743c-2.985,1.119-8.209,1.493-15.672,1.493H62.5ZM73.694,10.848V47.415h5.224c5.224,0,8.582-.746,10.821-1.866a12.533,12.533,0,0,0,5.6-5.97A20.14,20.14,0,0,0,97.574,29.5c0-5.97-1.866-10.821-5.224-14.179-2.985-2.985-8.209-4.478-14.925-4.478Z" transform="translate(170.707 1.093)"/></g><g transform="translate(113.805 22.761)"><path class="a" d="M79.753,6.1V16.921H30.5V6.1Z" transform="translate(-30.5 -6.1)"/></g></g></svg>