<svg xmlns="http://www.w3.org/2000/svg" viewBox="0 0 665.088 61.523"><defs><style>.a{fill:#fff;}</style></defs><g transform="translate(0 0)"><path class="a" d="M30.032,27.408h0l2.333,5.54L45.778,7.289l14,25.95L68.812,5.248h11.08L61.231,60.94l-15.454-31.2L29.449,60.648,20.41,27.408C16.037,17.2,12.829,10.5,10.5,8.164A21.219,21.219,0,0,0,4.082,2.916a6.862,6.862,0,0,0-2.333-.583H1.458L0,2.624A15.922,15.922,0,0,1,8.456,0H9.33c8.164,1.166,14.87,10.205,20.7,27.408Z"/><path class="a" d="M51.518,2.9h1.458c7,0,13.413,2.916,18.661,8.456a20.711,20.711,0,0,1,5.248,13.7q0,8.747-7.873,15.745A26.451,26.451,0,0,1,52.1,46.637,25.523,25.523,0,0,1,36.064,41.1a27.962,27.962,0,0,1-5.248-5.832A17.82,17.82,0,0,1,27.9,25.351V25.06c0-5.832,2.333-10.788,7.289-15.162A27.544,27.544,0,0,1,46.853,4.066,7.412,7.412,0,0,1,51.518,2.9ZM39.563,24.185v.875q0,4.811,5.248,8.747a16.317,16.317,0,0,0,7.873,2.333h.583c4.374,0,8.164-2.041,11.08-5.832A11.252,11.252,0,0,0,66.1,24.477q0-6.56-7-10.5a15.67,15.67,0,0,0-6.123-1.458,13.531,13.531,0,0,0-11.663,6.123A9.345,9.345,0,0,0,39.563,24.185Z" transform="translate(53.45 5.556)"/><path class="a" d="M54.239,2.9h3.791c14,0,22.743,4.082,27.117,12.538a25.028,25.028,0,0,1,1.166,6.123q0,10.059-8.747,13.121h-.292c1.749,1.166,4.957,4.374,10.205,9.33,4.957,3.5,9.33,5.832,13.413,6.706v.292c-6.123,1.166-11.371,1.749-15.454,2.333-2.041,0-7.581-4.374-17.2-13.413l-9.622-8.456c8.747-1.166,13.7-2.624,14.579-4.957a5.294,5.294,0,0,0,1.749-4.082c0-5.832-6.123-9.33-18.661-10.205V46.345H45.2V3.483l.292-.292C49.282,2.9,51.906,2.9,54.239,2.9Z" transform="translate(86.593 5.556)"/><path class="a" d="M61.483,2.8H71.688a.286.286,0,0,1,.292.292V38.664H88.308v.292c-3.207,4.374-4.957,6.706-5.54,7L60.9,46.245V3.383A.627.627,0,0,1,61.483,2.8Z" transform="translate(116.671 5.364)"/><path class="a" d="M71.292,2.9H89.078c4.374,0,9.039,1.458,14,4.665A23.6,23.6,0,0,1,111.821,20.1a14.2,14.2,0,0,1,.292,3.5v1.166h0v.292q0,11.372-7,16.62a21.771,21.771,0,0,1-14.579,4.665H71L71.292,2.9Zm11.08,9.33V37.015h4.665c5.832,0,9.622-.875,11.663-2.916a14.746,14.746,0,0,0,3.5-9.039c-.292-5.248-2.041-9.039-5.248-10.5-3.207-1.749-7.289-2.333-12.246-2.041H82.372Z" transform="translate(136.02 5.556)"/><path class="a" d="M119.783,1.8h1.749c8.747,0,16.037,3.5,22.743,10.788A28.025,28.025,0,0,1,150.4,30.375c0,7.581-3.207,14.287-9.33,20.119a30.5,30.5,0,0,1-20.41,7.581c-7,0-13.413-2.333-19.536-7.289C97.915,47.578,95.874,45.245,95,43.2a25.757,25.757,0,0,1-3.5-12.829v-.583c0-7.581,2.916-14,8.747-19.827a33.113,33.113,0,0,1,14-7.581A44.921,44.921,0,0,1,119.783,1.8Zm-17.2,28.575c2.041,11.08,8.456,16.911,19.244,17.786,11.08-.583,17.2-6.415,18.078-18.078-.875-11.08-7-17.2-18.661-18.369C109.578,13.463,103.163,19.586,102.58,30.375Z" transform="translate(175.293 3.448)"/><path class="a" d="M112.585,2.8h25.95v9.33h-14.87v8.456h12.829c.292,0,.292,0,.292.292L133,29.917h-9.33v16.62H112.877c-.292,0-.292,0-.292-.292V2.8Z" transform="translate(215.439 5.364)"/><path class="a" d="M153.741,27.408h0l2.333,5.54L169.486,7.289l14,25.95,9.039-27.991H203.6L185.231,60.94l-15.454-31.2L153.449,60.648l-9.33-33.24q-6.56-15.745-9.622-19.244a22.178,22.178,0,0,0-6.706-5.248,5.406,5.406,0,0,0-2.041-.583h-.583L124,2.624A15.922,15.922,0,0,1,132.456,0h.875c7.873,1.166,14.87,10.205,20.41,27.408Z" transform="translate(237.556)"/><path class="a" d="M175.418,2.9h1.458c7,0,13.413,2.916,18.661,8.456a20.711,20.711,0,0,1,5.248,13.7q0,8.747-7.873,15.745A26.451,26.451,0,0,1,176,46.637a25.523,25.523,0,0,1-16.037-5.54,27.963,27.963,0,0,1-5.248-5.832,17.82,17.82,0,0,1-2.916-9.914V25.06c0-5.832,2.333-10.788,7.289-15.162a27.544,27.544,0,0,1,11.663-5.832A8.307,8.307,0,0,1,175.418,2.9ZM163.463,24.185v.875q0,4.811,5.248,8.747a16.317,16.317,0,0,0,7.873,2.333h.583c4.374,0,8.164-2.041,11.08-5.832A11.252,11.252,0,0,0,190,24.477q0-6.56-7-10.5a15.67,15.67,0,0,0-6.123-1.458,13.531,13.531,0,0,0-11.663,6.123C164.046,20.978,163.463,22.436,163.463,24.185Z" transform="translate(290.814 5.556)"/><path class="a" d="M209.438,2.9V47.511l-29.158-20.7V46.345H169.2V5.816h.292l29.158,18.078V5.816Z" transform="translate(324.149 5.556)"/><path class="a" d="M184.592,2.9h17.786c4.374,0,9.039,1.458,14,4.665A23.6,23.6,0,0,1,225.121,20.1a14.194,14.194,0,0,1,.292,3.5v1.166h0v.292q0,11.372-7,16.62a21.771,21.771,0,0,1-14.579,4.665H184.3L184.592,2.9C184.3,3.192,184.3,2.9,184.592,2.9Zm10.788,9.33V37.015h4.665c5.832,0,9.622-.875,11.663-2.916a14.745,14.745,0,0,0,3.5-9.039c-.292-5.248-2.041-9.039-5.248-10.5-3.207-1.749-7.289-2.333-12.246-2.041H195.38Z" transform="translate(353.077 5.556)"/><path class="a" d="M199.883,2.9h19.244l4.957,9.039H211.255V19.52h8.164a.286.286,0,0,1,.292.292v8.747a.286.286,0,0,1-.292.292h-8.456v8.164h13.7v9.33H199.592a.286.286,0,0,1-.292-.292L199.883,2.9C199.592,3.192,199.592,2.9,199.883,2.9Z" transform="translate(381.814 5.556)"/><path class="a" d="M218.039,2.9h3.791c14,0,22.743,4.082,27.117,12.538a25.026,25.026,0,0,1,1.166,6.123q0,10.059-8.747,13.121h-.292c1.75,1.166,4.957,4.374,10.205,9.33,4.957,3.5,9.331,5.832,13.413,6.706v.292c-6.123,1.166-11.372,1.749-15.454,2.333-2.041,0-7.581-4.374-17.2-13.413l-9.622-8.456c8.747-1.166,13.7-2.624,14.579-4.957a5.294,5.294,0,0,0,1.749-4.082c0-5.832-6.123-9.33-18.661-10.205V46.345H209V3.483l.292-.292C213.082,2.9,216,2.9,218.039,2.9Z" transform="translate(400.397 5.556)"/></g></svg>