<svg xmlns="http://www.w3.org/2000/svg" viewBox="0 0 86.801 10.967"><path d="M47.275,8.908a6.374,6.374,0,0,1-3.558-.992A3.455,3.455,0,0,1,42.55,6.633H53.692L58.067,4.3H42.608a3.693,3.693,0,0,1,1.167-1.167,6.316,6.316,0,0,1,3.5-.992h8.983L60.342.1H46.4a10.708,10.708,0,0,0-5.892,1.575A4.113,4.113,0,0,0,38,5.292a4.806,4.806,0,0,0,2.45,4.025,10.3,10.3,0,0,0,5.892,1.692h9.917l3.617-2.1Z" transform="translate(-15.833 -0.042)"/><path d="M8.05,8.867,20.942,0H4.958L1.167,2.1H12.892L0,10.967H18.842l3.617-2.158Z"/><path d="M124.767,8.867,111.817,0H127.8l3.85,2.1H119.925l12.833,8.867H113.917L110.3,8.808Z" transform="translate(-45.958)"/><path d="M91.617,0V8.05c0,.233-.233.408-.7.583a7.061,7.061,0,0,1-1.75.233H84.5a5.085,5.085,0,0,1-1.75-.233c-.467-.117-.7-.35-.7-.583V0H78.2V8.692c0,.583.642,1.108,1.867,1.575a12.972,12.972,0,0,0,4.492.7h4.55a12.744,12.744,0,0,0,4.492-.7c1.283-.467,1.867-.992,1.867-1.575V0Z" transform="translate(-32.583)"/></svg>