<svg xmlns="http://www.w3.org/2000/svg" viewBox="0 0 297.599 37.6"><defs><style>.a{fill:#fff;}</style></defs><g transform="translate(0 0)"><path class="a" d="M69.8,30.3a21.855,21.855,0,0,1-12.2-3.4,11.845,11.845,0,0,1-4-4.4H91.8l15-8h-53a12.661,12.661,0,0,1,4-4,21.654,21.654,0,0,1,12-3.4h30.8l14-7H66.8C59,.1,52.2,1.9,46.6,5.5,40.8,8.7,38,12.9,38,17.9q0,8.1,8.4,13.8a35.314,35.314,0,0,0,20.2,5.8h34L113,30.3Z" transform="translate(38 0.1)"/><path class="a" d="M27.6,30.4,71.8,0H17L4,7.2H44.2L0,37.6H64.6L77,30.2Z"/><path class="a" d="M159.9,30.4,115.5,0h54.8l13.2,7.2H143.3l44,30.4H122.7l-12.4-7.4Z" transform="translate(110.299)"/><path class="a" d="M124.2,0V27.6c0,.8-.8,1.4-2.4,2a24.21,24.21,0,0,1-6,.8h-16a17.433,17.433,0,0,1-6-.8c-1.6-.4-2.4-1.2-2.4-2V0H78.2V29.8c0,2,2.2,3.8,6.4,5.4A44.476,44.476,0,0,0,100,37.6h15.6A43.694,43.694,0,0,0,131,35.2c4.4-1.6,6.4-3.4,6.4-5.4V0Z" transform="translate(78.199)"/></g></svg>