<svg xmlns="http://www.w3.org/2000/svg" viewBox="0 0 98.743 25.408"><defs><style>.a{fill:#fff;}</style></defs><g transform="translate(0 0.083)"><path class="a" d="M306.315,25.73c-1.831,0-3.427-.026-5.022,0-.549,0-.732-.392-.994-.732-1.936-2.459-3.9-4.918-5.781-7.4-.6-.785-.889-.915-1.543-.052-1.831,2.485-3.793,4.865-5.65,7.35a1.828,1.828,0,0,1-1.726.837c-1.413-.052-2.825-.026-4.5-.026,3.06-3.9,5.938-7.664,8.946-11.3a1.638,1.638,0,0,0-.026-2.563c-2.956-3.61-5.807-7.35-8.893-11.274,1.909,0,3.61-.026,5.31,0,.5,0,.654.523.916.863,2.119,2.694,4.211,5.415,6.409,8.213,2.223-2.825,4.394-5.545,6.487-8.292a1.7,1.7,0,0,1,1.622-.785c1.386.052,2.8.026,4.159.026.209.419-.131.6-.288.811-2.851,3.662-5.7,7.35-8.632,10.986-.549.68-.419,1.046.026,1.622,2.773,3.505,5.545,7.062,8.292,10.594C305.662,24.893,305.923,25.233,306.315,25.73Zm-12.529-15.8c-2.851,3.06-2.851,3.113-.575,5.833l.235.314c.235.288.418.209.6-.052.654-.863,1.334-1.7,2.014-2.563a.5.5,0,0,0-.052-.706C295.277,11.841,294.545,10.9,293.786,9.931Z" transform="translate(-207.572 -0.472)"/><path class="a" d="M21.135,12.824c0,3.819-.026,7.664.026,11.483,0,.811-.131,1.177-1.046,1.072-1.02-.1-2.406.314-3.034-.183-.654-.549-.183-1.962-.183-2.982q-.039-3.139,0-6.278c.026-.759-.157-1.072-1.02-1.072q-5.3.078-10.594,0c-.863,0-.994.288-.994,1.046.052,2.825,0,5.65.026,8.5,0,.706-.131.968-.915.968-3.4.078-3.4.1-3.4-3.27,0-2.145.026-4.264,0-6.408a1.544,1.544,0,0,1,.575-1.36c.026-.026.078-.052.1-.078a8.168,8.168,0,0,1,8.475-3.636A62.478,62.478,0,0,0,15.8,10.7c.863.026,1.125-.235,1.1-1.1-.052-2.8,0-5.571-.052-8.37C16.819.373,17.081.085,17.918.19c1.046.131,2.459-.445,3.008.209.523.628.209,1.988.209,3.008Z" transform="translate(0 -0.121)"/><path class="a" d="M133.1.8a2.791,2.791,0,0,1,.366.262c1.282,1.256,3.034,2.3,3.662,3.819.654,1.517.209,3.505.235,5.284,0,3.479-.026,6.958,0,10.463a2.478,2.478,0,0,1-.811,1.936c-1.1,1.1-2.093,2.25-3.139,3.4-.1-.078-.209-.183-.314-.262C133.1,17.436,133.1,9.2,133.1.8Z" transform="translate(-98.285 -0.652)"/><path class="a" d="M193.015,19.909c-.366-.314-.209-.654-.209-.915,0-5.781.026-11.588-.026-17.368,0-.942.262-1.125,1.151-1.125,3.217.026,3.217,0,3.217,3.27,0,3.662-.026,7.324,0,10.96a2.122,2.122,0,0,1-.654,1.726C195.291,17.554,194.166,18.731,193.015,19.909Z" transform="translate(-142.349 -0.431)"/><path class="a" d="M194.1,84.464c2.014-3.845,5.284-4.708,9.233-4.264a47.228,47.228,0,0,0,6.382.026c.706-.026.942.157.968.942.052,3.322.078,3.322-3.27,3.322H195.146C194.754,84.464,194.388,84.464,194.1,84.464Z" transform="translate(-143.329 -59.205)"/><path class="a" d="M0,8.413V.776C0,.279.131.043.654.069H.785C1.936.148,3.557-.454,4.133.3c.706.942.157,2.511.209,3.819.026.314-.157.471-.34.654C2.773,6.059,1.543,7.341.34,8.623A3.872,3.872,0,0,0,0,8.413Z" transform="translate(0 0)"/><path class="a" d="M323.354,36.4c.759.968,1.491,1.909,2.25,2.851a.524.524,0,0,1,.052.706c-.654.863-1.334,1.7-2.014,2.563-.209.262-.392.314-.6.052l-.235-.314C320.5,39.513,320.5,39.46,323.354,36.4Z" transform="translate(-237.14 -26.94)"/></g></svg>