<svg xmlns="http://www.w3.org/2000/svg" viewBox="0 0 94.751 94.79">
  <defs>
    <style>
      .cls-1 {
        fill: #fff;
      }
    </style>
  </defs>
  <g id="Adventure_1" transform="translate(-9.975 -9.983)">
    <path id="Path_735" data-name="Path 735" class="cls-1" d="M40.919,41.892A24.946,24.946,0,1,0,57.93,85.033a1.149,1.149,0,0,0,.351-.233,1.126,1.126,0,0,0,.143-.217,24.926,24.926,0,0,0-17.5-42.69ZM63.414,65.205H60.2a1.184,1.184,0,1,0,0,2.369H63.46a22.463,22.463,0,0,1-6.071,14.658l-2.108-2.109A1.184,1.184,0,0,0,53.606,81.8l2.08,2.081a22.451,22.451,0,0,1-13.72,5.484V86.283a1.184,1.184,0,0,0-2.369,0v3.064a22.457,22.457,0,0,1-14.013-5.989l2.238-2.238a1.184,1.184,0,1,0-1.675-1.675l-2.215,2.215a22.454,22.454,0,0,1-5.552-14.087h3.464a1.184,1.184,0,1,0,0-2.369H18.426A22.46,22.46,0,0,1,23.88,52.07l2.543,2.543A1.184,1.184,0,1,0,28.1,52.939l-2.571-2.571A22.457,22.457,0,0,1,39.6,44.326V47.84a1.184,1.184,0,1,0,2.369,0V44.312a22.453,22.453,0,0,1,13.778,5.537l-2.478,2.478A1.184,1.184,0,1,0,54.941,54l2.5-2.5A22.474,22.474,0,0,1,63.414,65.205Z" transform="translate(1.106 5.883)"/>
    <path id="Path_736" data-name="Path 736" class="cls-1" d="M38.97,50.493a1.184,1.184,0,0,0-2.255,0L31.966,65.267a1.18,1.18,0,0,0,0,.724l4.749,14.775a1.184,1.184,0,0,0,2.255,0L43.719,65.99a1.18,1.18,0,0,0,0-.724ZM37.843,76.534l-3.506-10.9,3.506-10.9,3.5,10.9Z" transform="translate(4.044 7.317)"/>
    <path id="Path_737" data-name="Path 737" class="cls-1" d="M90.828,16.39a8.47,8.47,0,0,0-10.265-6.152L38.785,20.707a1.184,1.184,0,0,0-.861,1.437l4.645,18.54c-.181,0-.361-.014-.542-.014a32.051,32.051,0,1,0,28.08,47.486l28.209-7.068a8.46,8.46,0,0,0,6.153-10.265ZM42.025,102.4A29.683,29.683,0,1,1,71.708,72.722,29.717,29.717,0,0,1,42.025,102.4ZM62.139,35.877l4.7-1.21,1.4,5.43-5.827,1.5A19.844,19.844,0,0,1,62.139,35.877ZM85.058,38.21a15.451,15.451,0,0,1,.017,5.363l-5.292,1.363a19.8,19.8,0,0,0-.308-5.287Zm-7.72,7.355-4.92,1.267-1.3-5.032,6.057-1.56A17.54,17.54,0,0,1,77.338,45.565ZM67.145,50.638l3.57-.919,1.215,4.716A22.993,22.993,0,0,1,67.145,50.638Zm-1.688-2.012A17.4,17.4,0,0,1,63,43.893l5.827-1.5,1.3,5.032Zm7.55.5,3.821-.984a22.948,22.948,0,0,1-2.54,5.956ZM70.53,39.5l-1.4-5.43L74.08,32.8A19.869,19.869,0,0,1,76.6,37.942Zm-1.99-7.724-1.394-5.413A21.39,21.39,0,0,1,72.5,30.76Zm-2.294.591-3.7.953a21.875,21.875,0,0,1,2.37-6.127ZM60.724,44.479a19.627,19.627,0,0,0,1.413,3.311,32.205,32.205,0,0,0-3.863-2.68Zm8.195,10.838c.612.435,1.2.816,1.729,1.131-.338.019-.676.025-1.014.021Q69.287,55.883,68.918,55.317Zm10.53-7.849L84.391,46.2a15.541,15.541,0,0,1-7.806,8.716A24.459,24.459,0,0,0,79.449,47.468Zm-.558-10.117a22.31,22.31,0,0,0-2.376-5.178l5.093-1.312a15.447,15.447,0,0,1,2.861,5.054ZM75.048,30.1a24.015,24.015,0,0,0-5.03-4.728,15.4,15.4,0,0,1,7.658,2.153,15.747,15.747,0,0,1,1.958,1.393Zm-15.063,3.88-4.615,1.189A15.438,15.438,0,0,1,62.106,27.4,23.981,23.981,0,0,0,59.985,33.984ZM54.59,37.822,59.7,36.5a22.3,22.3,0,0,0,.424,5.681l-5.009,1.291c-.22-.1-.437-.2-.66-.3A15.6,15.6,0,0,1,54.59,37.822Zm46.895,38.191a6.056,6.056,0,0,1-3.746,2.779l-26.27,6.583a31.774,31.774,0,0,0,2.458-9.583l19.8-4.962a1.184,1.184,0,0,0-.576-2.3L74.062,73.316c0-.2.015-.394.015-.593a32.1,32.1,0,0,0-.374-4.9L92.569,63.1a1.184,1.184,0,0,0-.576-2.3L73.247,65.5a31.818,31.818,0,0,0-2.35-6.689,17.926,17.926,0,0,0,7.986-33.316,17.854,17.854,0,0,0-26.9,16.769,31.9,31.9,0,0,0-6.937-1.445l-4.535-18.1L81.14,12.535a6.1,6.1,0,0,1,7.392,4.431L102.17,71.4A6.06,6.06,0,0,1,101.485,76.013Z" transform="translate(0)"/>
  </g>
</svg>
