<svg xmlns="http://www.w3.org/2000/svg" viewBox="0 0 68.996 107.765">
  <defs>
    <style>
      .cls-1 {
        fill: none;
        stroke-width: 2.5px;
        font-size: 33px;
        font-family: FontAwesome5FreeSolid, "Font Awesome 5 Free";
      }

      .cls-1, .cls-2 {
        stroke: #fff;
      }

      .cls-2 {
        fill: #fff;
      }
    </style>
  </defs>
  <g id="Group_3335" data-name="Group 3335" transform="translate(-4247.5 -2572.5)">
    <text id="_" data-name="" class="cls-1" transform="translate(4250 2605)"><tspan x="0" y="0"></tspan></text>
    <text id="_2" data-name="" class="cls-1" transform="translate(4288.996 2672.764)"><tspan x="0" y="0"></tspan></text>
    <path id="Curve_line" data-name="Curve line" class="cls-2" d="M10.909,30.818H42.644A10.909,10.909,0,1,0,42.644,9H13.3c.227-.227,0,1.983,0,1.983H42.644a8.925,8.925,0,1,1,0,17.851H10.909a10.909,10.909,0,1,0,0,21.818H40.254a1.587,1.587,0,0,1,0-1.983H10.909a8.925,8.925,0,1,1,0-17.851Z" transform="translate(4250 2601.009)"/>
  </g>
</svg>
