<svg xmlns="http://www.w3.org/2000/svg" viewBox="0 0 32.593 27.878"><defs><style>.a{fill:#fff;}</style></defs><path class="a" d="M26.394,40.612a3.433,3.433,0,1,0,3.433,3.433A3.458,3.458,0,0,0,26.394,40.612Zm0,5.035a1.6,1.6,0,1,1,1.6-1.6A1.622,1.622,0,0,1,26.394,45.647Zm11.49-5.035a3.433,3.433,0,1,0,3.433,3.433A3.4,3.4,0,0,0,37.884,40.612Zm0,5.035a1.6,1.6,0,1,1,1.6-1.6A1.592,1.592,0,0,1,37.884,45.647ZM42.37,34.89H24.379q.275,1.03.412,1.511c.32,1.328,1.053,1.328,1.053,1.328h14.42a3.311,3.311,0,0,1,3.159,2.243.908.908,0,0,1-.6,1.144.581.581,0,0,1-.275.046.939.939,0,0,1-.87-.6,1.564,1.564,0,0,0-1.419-.961H25.89s-2.152.137-2.884-2.7c-.458-1.831-3.342-12.635-4.12-15.473H15.316a.916.916,0,1,1,0-1.831h4.257a.882.882,0,0,1,.87.687S22.548,28.252,23.83,33.1H41.683L44.8,23.445H23.281a.916.916,0,1,1,0-1.831h22.8a.956.956,0,0,1,.732.366.888.888,0,0,1,.137.824L43.24,34.295A1.014,1.014,0,0,1,42.37,34.89Z" transform="translate(-14.4 -19.6)"/></svg>