<svg xmlns="http://www.w3.org/2000/svg" viewBox="0 0 47.734 73.971">
  <defs>
    <style>
      .cls-1 {
        fill: #fff;
      }
    </style>
  </defs>
  <g id="Lost" transform="translate(-5.675 -0.005)">
    <path id="Path_744" data-name="Path 744" class="cls-1" d="M29.542.005a23.88,23.88,0,0,0-23,30.247,23.281,23.281,0,0,0,.8,2.386l.724,1.644L29.542,73.976l21.509-39.75.652-1.482A23.876,23.876,0,0,0,29.542.005ZM29.2,38.049a2.3,2.3,0,1,1,2.2-2.275A2.152,2.152,0,0,1,29.2,38.049Zm3.558-13.756a7.242,7.242,0,0,0-2.09,5.393l.037.952H27.843l-.072-.952a8.409,8.409,0,0,1,2.272-6.345c1.65-1.946,2.568-3.377,2.568-5.028,0-1.872-1.174-3.118-3.486-3.153A6.516,6.516,0,0,0,25.421,16.3l-.881-2.312a9.612,9.612,0,0,1,5.247-1.468c4.216,0,6.123,2.605,6.123,5.391C35.91,20.4,34.517,22.2,32.757,24.293Z" transform="translate(0 0)"/>
  </g>
</svg>
