<svg xmlns="http://www.w3.org/2000/svg" viewBox="0 0 82.79 82.79">
  <defs>
    <style>
      .cls-1 {
        fill: #ececec;
      }
    </style>
  </defs>
  <g id="Performance" transform="translate(-8 -8)">
    <path id="Path_725" data-name="Path 725" class="cls-1" d="M90.79,49.395A41.4,41.4,0,1,0,23.006,81.131V81.3h0a41.448,41.448,0,0,0,52.779,0h0A41.79,41.79,0,0,0,90.79,49.395Zm-79.34,0A37.945,37.945,0,1,1,75.094,77.336a32.8,32.8,0,0,0-51.4,0A38.266,38.266,0,0,1,11.45,49.395ZM26.455,79.579a29.075,29.075,0,0,1,45.879,0,37.781,37.781,0,0,1-45.879,0Z"/>
    <path id="Path_726" data-name="Path 726" class="cls-1" d="M32.725,18.9A1.63,1.63,0,0,1,31,17.174v-3.45a1.725,1.725,0,1,1,3.45,0v3.45A1.63,1.63,0,0,1,32.725,18.9Z" transform="translate(16.67 2.899)"/>
    <path id="Path_727" data-name="Path 727" class="cls-1" d="M24.879,20.911a2.058,2.058,0,0,1-1.552-.862L21.6,17.117a1.776,1.776,0,0,1,3.1-1.725l1.725,2.932a1.745,1.745,0,0,1-.69,2.415C25.4,20.739,25.224,20.911,24.879,20.911Z" transform="translate(9.682 4.681)"/>
    <path id="Path_728" data-name="Path 728" class="cls-1" d="M18.954,26.472a1.555,1.555,0,0,1-.862-.172L15.16,24.575a1.91,1.91,0,0,1-.69-2.415,1.855,1.855,0,0,1,2.415-.69l2.932,1.725a1.91,1.91,0,0,1,.69,2.415A1.508,1.508,0,0,1,18.954,26.472Z" transform="translate(4.569 9.642)"/>
    <path id="Path_729" data-name="Path 729" class="cls-1" d="M17.174,34.45h-3.45a1.725,1.725,0,1,1,0-3.45h3.45a1.725,1.725,0,1,1,0,3.45Z" transform="translate(2.899 16.67)"/>
    <path id="Path_730" data-name="Path 730" class="cls-1" d="M53.174,34.45h-3.45a1.725,1.725,0,1,1,0-3.45h3.45a1.725,1.725,0,1,1,0,3.45Z" transform="translate(28.991 16.67)"/>
    <path id="Path_731" data-name="Path 731" class="cls-1" d="M47.354,26.6a2.058,2.058,0,0,1-1.552-.862,1.745,1.745,0,0,1,.69-2.415L49.424,21.6a1.776,1.776,0,0,1,1.725,3.1l-2.932,1.725A7.47,7.47,0,0,1,47.354,26.6Z" transform="translate(27.222 9.682)"/>
    <path id="Path_732" data-name="Path 732" class="cls-1" d="M41.022,20.779a1.555,1.555,0,0,1-.862-.172,1.91,1.91,0,0,1-.69-2.415l1.725-2.932a1.776,1.776,0,1,1,3.1,1.725l-1.725,2.932A2.384,2.384,0,0,1,41.022,20.779Z" transform="translate(22.688 4.641)"/>
    <path id="Path_733" data-name="Path 733" class="cls-1" d="M54.027,25.76a1.91,1.91,0,0,0-2.415-.69L38.676,32.487a6.281,6.281,0,0,0-3.967-1.552,6.209,6.209,0,1,0,6.209,6.209,5.1,5.1,0,0,0-.345-1.725L53.337,28A1.522,1.522,0,0,0,54.027,25.76ZM34.709,40.076a2.76,2.76,0,1,1,2.76-2.76A2.724,2.724,0,0,1,34.709,40.076Z" transform="translate(20.858 17.251)"/>
  </g>
</svg>
