<svg xmlns="http://www.w3.org/2000/svg" viewBox="0 0 99.697 99.697"><defs><style>.a{fill:#fff;fill-rule:evenodd;}</style></defs><g transform="translate(-6 -6)"><path class="a" d="M55.849,6A49.849,49.849,0,1,0,105.7,55.849,49.782,49.782,0,0,0,55.849,6Zm0,94.158a44.31,44.31,0,1,1,44.31-44.31A44.3,44.3,0,0,1,55.849,100.158Z"/><path class="a" d="M78.87,50.987h0L40.1,28.832h0a2.949,2.949,0,0,0-1.329-.332A2.742,2.742,0,0,0,36,31.269v44.31a2.742,2.742,0,0,0,2.769,2.769,2.362,2.362,0,0,0,1.329-.332h0L78.87,55.861h0a2.63,2.63,0,0,0,1.44-2.437A2.887,2.887,0,0,0,78.87,50.987Z" transform="translate(3.232 2.424)"/></g></svg>