<svg xmlns="http://www.w3.org/2000/svg" viewBox="0 0 74.945 74">
  <defs>
    <style>
      .cls-1 {
        fill: #fff;
      }
    </style>
  </defs>
  <g id="Repair" transform="translate(-4.253 -4.658)">
    <path id="Path_738" data-name="Path 738" class="cls-1" d="M20.593,29.5a5.094,5.094,0,0,1,2.879,1.184L35.317,42.526a1.229,1.229,0,1,0,1.738-1.737L25.211,28.944A7.242,7.242,0,0,0,20.6,27.039h-.02c-.078,0-6.608,0-9.661-3.057C8.5,21.568,8,16.938,7.891,15.1l4.4,4.4a3.431,3.431,0,0,0,4.847,0l3.109-3.109a3.433,3.433,0,0,0,0-4.846l-4.4-4.4c1.838.106,6.468.614,8.883,3.029,3.041,3.041,3.057,9.6,3.057,9.661a7.236,7.236,0,0,0,1.9,4.628L41.536,36.308a1.229,1.229,0,0,0,1.738-1.737L31.43,22.724a4.877,4.877,0,0,1-1.184-2.878c0-.31-.007-7.641-3.777-11.411S15.337,4.652,15.058,4.658a2.179,2.179,0,0,0-2.226,1.226,2.181,2.181,0,0,0,.72,2.438l4.961,4.961a.972.972,0,0,1,0,1.372L15.4,17.764a.972.972,0,0,1-1.372,0L9.07,12.8a2.182,2.182,0,0,0-2.438-.72A2.18,2.18,0,0,0,5.407,14.31c0,.31.007,7.641,3.777,11.411S20.29,29.5,20.593,29.5Z" transform="translate(-0.209 0)"/>
    <path id="Path_739" data-name="Path 739" class="cls-1" d="M83.528,65.5c-3.7-3.7-10.843-3.776-11.387-3.776h-.033a4.889,4.889,0,0,1-2.869-1.184L57.393,48.689a1.228,1.228,0,1,0-1.737,1.737L67.5,62.272a7.247,7.247,0,0,0,4.608,1.9h.02c.1.019,6.609,0,9.662,3.056,2.416,2.416,2.923,7.046,3.029,8.883l-4.4-4.4a3.433,3.433,0,0,0-4.847,0l-3.11,3.109a3.434,3.434,0,0,0,0,4.848l4.4,4.4c-1.836-.1-6.459-.605-8.883-3.029-3.042-3.043-3.057-9.6-3.057-9.661a7.238,7.238,0,0,0-1.9-4.629L51.175,54.908a1.229,1.229,0,1,0-1.738,1.737L61.281,68.491a4.876,4.876,0,0,1,1.184,2.88c0,.31.007,7.64,3.777,11.411,3.7,3.7,10.844,3.776,11.39,3.776h.023a2.027,2.027,0,0,0,1.506-3.663L74.2,77.934a.972.972,0,0,1,0-1.374l3.109-3.108a.973.973,0,0,1,1.373,0l4.961,4.961a2.028,2.028,0,0,0,3.664-1.506C87.307,76.6,87.3,69.266,83.528,65.5Z" transform="translate(-8.108 -7.9)"/>
    <path id="Path_740" data-name="Path 740" class="cls-1" d="M34.294,51.134,63.818,21.61a3.4,3.4,0,0,0,3.812-.7l7.087-7.089L69.871,8.971l-7.089,7.087a3.405,3.405,0,0,0-.7,3.814L32.556,49.4l-2.241-2.239a3.425,3.425,0,0,0-4.847,0L5.256,67.368a3.425,3.425,0,0,0,0,4.845l6.219,6.222a3.429,3.429,0,0,0,4.847,0L36.536,58.222a3.432,3.432,0,0,0,0-4.847ZM64.52,17.8l5.351-5.35,1.371,1.371-5.35,5.351a.991.991,0,0,1-1.372,0,.969.969,0,0,1,0-1.372ZM14.586,76.7a1,1,0,0,1-1.373,0l-6.22-6.223a.957.957,0,0,1-.283-.682.967.967,0,0,1,.283-.686L23.228,52.871l7.591,7.591ZM34.8,56.485l-2.24,2.24-7.591-7.591,2.24-2.24a.969.969,0,0,1,1.371,0l6.22,6.219A.972.972,0,0,1,34.8,56.485Z" transform="translate(0 -0.78)"/>
  </g>
</svg>
