<svg xmlns="http://www.w3.org/2000/svg" viewBox="0 0 63.825 63.8">
  <defs>
    <style>
      .cls-1 {
        fill: #fff;
      }
    </style>
  </defs>
  <path id="Replacemnet_1" data-name="Replacemnet 1" class="cls-1" d="M18.6,38.9a1.626,1.626,0,1,1,2.3-2.3L23,38.7V30.6A12.5,12.5,0,0,1,35.5,18.1h5.7a1.6,1.6,0,0,1,0,3.2H35.5a9.347,9.347,0,0,0-9.3,9.3v8.1l2.1-2.1a1.626,1.626,0,1,1,2.3,2.3l-4.8,4.8a1.46,1.46,0,0,1-2.2,0Zm32.2,8.9V19.9a1.58,1.58,0,0,1,1.6-1.6H80.3a1.58,1.58,0,0,1,1.6,1.6V47.8a1.58,1.58,0,0,1-1.6,1.6H52.4A1.58,1.58,0,0,1,50.8,47.8ZM54,46.2H78.7V21.5H54ZM81.4,61.1l-4.8-4.8a1.694,1.694,0,0,0-2.3,0l-4.8,4.8a1.626,1.626,0,1,0,2.3,2.3l2.1-2.1v8.1a9.347,9.347,0,0,1-9.3,9.3H58.9a1.6,1.6,0,1,0,0,3.2h5.7A12.5,12.5,0,0,0,77.1,69.4V61.3l2.1,2.1a1.46,1.46,0,0,0,2.2,0A1.521,1.521,0,0,0,81.4,61.1Zm-63.3,19V52.2a1.58,1.58,0,0,1,1.6-1.6H47.6a1.58,1.58,0,0,1,1.6,1.6V80.1a1.58,1.58,0,0,1-1.6,1.6H19.7A1.58,1.58,0,0,1,18.1,80.1Zm3.2-1.6H46V53.8H21.3Z" transform="translate(-18.1 -18.1)"/>
</svg>
