<svg xmlns="http://www.w3.org/2000/svg" viewBox="0 0 33.657 12.457">
  <defs>
    <style>
      .cls-1 {
        fill: #fff;
        stroke: #fff;
      }
    </style>
  </defs>
  <g id="eyewear" transform="translate(-57.189 -185.926)">
    <path id="Path_1" data-name="Path 1" class="cls-1" d="M130.538,187.194h.019l.092-.006.246-.011a.284.284,0,1,0-.018-.568q-.129,0-.26.011h0l-.1.006a.284.284,0,0,0,.018.568Z" transform="translate(-66.59 -0.168)"/>
    <path id="Path_2" data-name="Path 2" class="cls-1" d="M397.583,309.646l-.074.046a.284.284,0,1,0,.293.486l.084-.052a.284.284,0,0,0-.3-.48Z" transform="translate(-311.714 -113.034)"/>
    <path id="Path_3" data-name="Path 3" class="cls-1" d="M90.062,189.544H88.8a3.665,3.665,0,0,0-.672-1.337,5.531,5.531,0,0,0-4.376-1.766c-.574-.019-1.127-.02-1.644-.005H65.937a.283.283,0,0,0-.274.213l0,.008a.314.314,0,0,0,0,.036c0,.006,0,.012,0,.019s0,0,0,0,0,0,0,0,0,.015,0,.023a.3.3,0,0,0,0,.032c0,.006,0,.011,0,.017a.283.283,0,0,0,.012.037l0,.009a.276.276,0,0,0,.022.04l0,0a.283.283,0,0,0,.226.124,10.726,10.726,0,0,1,5.327,1.233,2.177,2.177,0,0,1,.954,1.475,2.252,2.252,0,0,1-.005.755,8.3,8.3,0,0,1-3.024,5.306c-2.232,1.67-5.718,2.315-7.782.219a6.468,6.468,0,0,1-1.638-3.653,8.91,8.91,0,0,1-.127-1.411,3.652,3.652,0,0,1,.719-2.367,3.79,3.79,0,0,1,1.792-1.2.284.284,0,0,0-.183-.538,4.348,4.348,0,0,0-2.053,1.384,3.669,3.669,0,0,0-.671,1.337H57.973a.284.284,0,0,0-.284.284v1.379a.284.284,0,0,0,.284.284h1.115c.021.287.058.595.112.938a7.009,7.009,0,0,0,1.794,3.962,5.136,5.136,0,0,0,3.757,1.487,8.224,8.224,0,0,0,4.77-1.649,8.853,8.853,0,0,0,3.243-5.663,2.834,2.834,0,0,0,.04-.57,10.366,10.366,0,0,0,1.468.117,5.01,5.01,0,0,0,.958-.082,2.839,2.839,0,0,0,.041.535,8.855,8.855,0,0,0,3.242,5.663,8.236,8.236,0,0,0,4.785,1.655,6,6,0,0,0,.876-.063.284.284,0,0,0-.083-.562,7.353,7.353,0,0,1-5.238-1.485,8.3,8.3,0,0,1-3.023-5.306,2.253,2.253,0,0,1-.005-.755,2.175,2.175,0,0,1,.954-1.475A10.723,10.723,0,0,1,82.107,187c.51-.015,1.057-.014,1.625,0a5.005,5.005,0,0,1,3.95,1.552,3.646,3.646,0,0,1,.719,2.365,9.016,9.016,0,0,1-.127,1.412,7.254,7.254,0,0,1-1.052,2.93.284.284,0,1,0,.473.315,7.808,7.808,0,0,0,1.14-3.155c.054-.338.091-.648.112-.938h1.116a.284.284,0,0,0,.284-.284v-1.379A.284.284,0,0,0,90.062,189.544Zm-31,1.379h-.81v-.811h.81Zm17.4-3.162A2.739,2.739,0,0,0,75.3,189.43a7.091,7.091,0,0,1-2.577-.022,2.741,2.741,0,0,0-1.161-1.647A6.718,6.718,0,0,0,69.889,187h8.259A6.718,6.718,0,0,0,76.47,187.761Zm13.308,3.162h-.81v-.811h.81Z" transform="translate(0 0)"/>
  </g>
</svg>
