<svg xmlns="http://www.w3.org/2000/svg" viewBox="0 0 33.639 12.937">
  <g id="Group_1806" data-name="Group 1806" transform="translate(-575.017 -146)">
    <path id="Path_52" data-name="Path 52" d="M9233.063,447.826s-.562,4.383,2.248,7.418,7.943.524,8.654,0a9.589,9.589,0,0,0,4.309-6.106c.673-3.746-1.351-4.2-2.848-4.645s-6.556-1.349-9.44,0S9233.063,447.826,9233.063,447.826Z" transform="translate(-8658 -297.78)"/>
    <path id="Path_53" data-name="Path 53" d="M9248.361,447.826s.561,4.383-2.248,7.417-7.943.524-8.654,0a9.6,9.6,0,0,1-4.309-6.106c-.674-3.746,1.35-4.2,2.848-4.645s6.557-1.349,9.441,0S9248.361,447.826,9248.361,447.826Z" transform="translate(-8639.751 -297.78)"/>
  </g>
</svg>
