<svg xmlns="http://www.w3.org/2000/svg" viewBox="0 0 42.231 30.416"><g transform="translate(0 0)"><g transform="translate(0 0)"><path d="M33.066,47.416c-.468,0-12.517-.117-20.94-14.623a1.063,1.063,0,0,1,0-1.17C20.548,17.117,32.6,17,33.066,17s12.517.117,20.94,14.623a1.063,1.063,0,0,1,0,1.17C45.583,47.3,33.534,47.416,33.066,47.416ZM14.582,32.208c7.6,12.634,18.016,12.868,18.484,12.868s10.88-.234,18.484-12.868C43.945,19.574,33.534,19.34,33.066,19.34S22.186,19.574,14.582,32.208Z" transform="translate(-11.95 -17)"/></g><g transform="translate(11.757 5.849)"><path d="M31.359,40.718a9.359,9.359,0,1,1,9.359-9.359A9.386,9.386,0,0,1,31.359,40.718Zm0-16.378a7.019,7.019,0,1,0,7.019,7.019A7.04,7.04,0,0,0,31.359,24.34Z" transform="translate(-22 -22)"/></g><g transform="translate(15.266 9.359)"><path d="M26.17,31.434A1.105,1.105,0,0,1,25,30.264,5.242,5.242,0,0,1,30.264,25a1.17,1.17,0,1,1,0,2.34,2.9,2.9,0,0,0-2.925,2.925A1.105,1.105,0,0,1,26.17,31.434Z" transform="translate(-25 -25)"/></g></g></svg>