<svg xmlns="http://www.w3.org/2000/svg" viewBox="0 0 66.246 101.265">
  <defs>
    <style>
      .cls-1 {
        fill: none;
        stroke-width: 2.5px;
      }

      .cls-1, .cls-2 {
        stroke: #fff;
      }

      .cls-2 {
        fill: #fff;
      }
    </style>
  </defs>
  <g id="Group_3335" data-name="Group 3335" transform="translate(-4248.75 -2576.875)">
    <path id="Path_1063" data-name="Path 1063" class="cls-1" d="M11.086,3.48a1.479,1.479,0,0,0,1.289.645,1.479,1.479,0,0,0,1.289-.645l4.318-6.187q3.223-4.641,4.254-6.252a18.152,18.152,0,0,0,2-3.9A11.733,11.733,0,0,0,24.75-16.5a11.944,11.944,0,0,0-1.676-6.187A12.612,12.612,0,0,0,18.563-27.2a11.944,11.944,0,0,0-6.187-1.676A11.944,11.944,0,0,0,6.188-27.2a12.612,12.612,0,0,0-4.512,4.512A11.944,11.944,0,0,0,0-16.5a11.733,11.733,0,0,0,.516,3.642,18.151,18.151,0,0,0,2,3.9Q3.545-7.348,6.768-2.707,9.41,1.031,11.086,3.48Zm1.289-14.824a4.965,4.965,0,0,1-3.642-1.515A4.965,4.965,0,0,1,7.219-16.5a4.965,4.965,0,0,1,1.515-3.642,4.965,4.965,0,0,1,3.642-1.515,4.965,4.965,0,0,1,3.642,1.515A4.965,4.965,0,0,1,17.531-16.5a4.965,4.965,0,0,1-1.515,3.642A4.965,4.965,0,0,1,12.375-11.344Z" transform="translate(4250 2607)"/>
    <path id="Path_1064" data-name="Path 1064" class="cls-1" d="M11.086,3.48a1.479,1.479,0,0,0,1.289.645,1.479,1.479,0,0,0,1.289-.645l4.318-6.187q3.223-4.641,4.254-6.252a18.152,18.152,0,0,0,2-3.9A11.733,11.733,0,0,0,24.75-16.5a11.944,11.944,0,0,0-1.676-6.187A12.612,12.612,0,0,0,18.563-27.2a11.944,11.944,0,0,0-6.187-1.676A11.944,11.944,0,0,0,6.188-27.2a12.612,12.612,0,0,0-4.512,4.512A11.944,11.944,0,0,0,0-16.5a11.733,11.733,0,0,0,.516,3.642,18.151,18.151,0,0,0,2,3.9Q3.545-7.348,6.768-2.707,9.41,1.031,11.086,3.48Zm1.289-14.824a4.965,4.965,0,0,1-3.642-1.515A4.965,4.965,0,0,1,7.219-16.5a4.965,4.965,0,0,1,1.515-3.642,4.965,4.965,0,0,1,3.642-1.515,4.965,4.965,0,0,1,3.642,1.515A4.965,4.965,0,0,1,17.531-16.5a4.965,4.965,0,0,1-1.515,3.642A4.965,4.965,0,0,1,12.375-11.344Z" transform="translate(4288.996 2672.764)"/>
    <path id="Curve_line" data-name="Curve line" class="cls-2" d="M10.909,30.818H42.644A10.909,10.909,0,1,0,42.644,9H13.3c.227-.227,0,1.983,0,1.983H42.644a8.925,8.925,0,1,1,0,17.851H10.909a10.909,10.909,0,1,0,0,21.818H40.254a1.587,1.587,0,0,1,0-1.983H10.909a8.925,8.925,0,1,1,0-17.851Z" transform="translate(4250 2601.009)"/>
  </g>
</svg>
